<svg width="1715" height="300" viewBox="0 0 1715 300" fill="none" xmlns="http://www.w3.org/2000/svg">
<path d="M493.167 43.5482C481.179 53.5482 453.312 95.1611 429.658 138.709C403.412 186.451 368.742 264.193 370.686 269.677C371.982 273.548 378.138 274.193 397.58 273.548L422.854 272.58L437.435 243.548L452.016 214.516L514.553 213.548C551.492 213.226 579.358 214.193 582.923 216.129C586.163 217.742 592.967 229.032 597.828 240.968C610.465 272.58 612.409 274.193 640.275 274.193C653.236 274.193 664.577 272.903 665.549 271.613C667.169 268.709 648.376 223.226 626.666 179.032C598.8 121.613 554.084 49.9998 540.475 40.645C528.81 32.5805 504.508 33.8708 493.167 43.5482ZM540.475 126.774C569.638 175.806 572.23 170.968 518.766 170.968C490.899 170.968 473.078 169.677 473.078 167.742C473.078 162.903 515.201 93.5482 518.117 93.5482C519.414 93.5482 529.458 108.387 540.475 126.774Z" fill="white"/>
<path d="M1193.39 38.7095C1183.99 42.5805 1142.52 105.161 1116.27 155.806C1090.35 205.161 1062.48 267.742 1064.75 271.613C1065.72 272.903 1078.03 274.193 1092.29 274.193H1118.21L1131.17 246.129C1138.3 230.645 1146.08 216.774 1148.02 215.484C1153.21 212.258 1273.75 212.258 1278.93 215.484C1281.2 216.774 1286.71 226.451 1291.24 237.097C1307.77 275.484 1304.53 272.58 1334.34 273.548C1356.37 274.193 1360.91 273.548 1360.91 269.677C1360.91 266.774 1355.72 251.935 1349.24 236.451C1315.22 154.516 1248.15 42.2579 1230.33 37.4192C1220.28 34.8385 1201.81 35.4837 1193.39 38.7095ZM1241.02 134.193C1263.38 173.226 1265.32 170.968 1213.8 170.968C1185.61 170.968 1169.73 169.677 1169.73 167.742C1169.73 162.58 1181.4 140.645 1197.92 115.161L1212.83 92.2579L1219.96 101.29C1224.17 106.451 1233.57 121.29 1241.02 134.193Z" fill="white"/>
<path d="M47.9559 152.258C47.3078 218.387 47.9559 267.742 49.576 270C51.5201 272.903 61.2409 274.193 76.4701 274.193C89.7552 274.193 100.772 273.871 100.772 273.226C101.096 272.903 101.744 230.645 102.392 179.677C103.04 128.709 104.336 85.4837 105.308 83.8708C107.901 79.3547 193.119 79.6772 213.857 84.1934C232.003 88.0643 239.779 96.1288 239.779 110.645C239.779 135.161 225.198 142.58 172.058 145.161L131.879 146.774L149.7 158.709C170.114 172.903 221.634 225.161 243.992 253.871L259.221 274.193H284.495C298.428 274.193 311.065 273.226 312.037 272.258C315.925 268.387 294.54 232.903 270.238 203.548L246.26 174.516L256.629 169.032C281.255 156.774 294.864 135.806 294.864 109.677C294.864 89.3547 289.031 75.4837 275.098 62.2579C252.74 41.2901 248.204 40.3224 143.543 39.3547L49.252 38.3869L47.9559 152.258Z" fill="white"/>
<path d="M742.02 156.451V274.193H814.601C916.669 274.193 952.636 266.129 983.419 236.451C1002.21 218.387 1008.69 200.645 1010.31 163.226C1012.91 105.806 1000.59 78.7095 962.681 58.3869C931.251 41.9353 909.541 38.7095 820.758 38.7095H742.02V156.451ZM920.882 88.3869C944.212 97.0966 954.905 110.968 957.821 137.419C959.117 150.322 958.469 167.419 956.525 179.032C953.284 195.484 951.016 200 939.999 210C920.882 227.097 904.357 230.645 845.708 230.645H795.484L794.512 159.677C794.188 120.645 794.512 86.774 795.484 84.5159C798.076 77.4192 900.144 80.9676 920.882 88.3869Z" fill="white"/>
<path d="M1480.15 43.2256C1460.06 48.7095 1444.51 59.6772 1433.81 75.8063C1426.04 87.4192 1425.39 91.2901 1426.36 111.935C1427.33 131.935 1428.63 136.451 1437.38 147.419C1442.89 154.193 1453.58 163.226 1461.03 167.097L1474.32 174.839L1458.76 192.903C1429.93 226.451 1403.68 267.419 1408.54 272.258C1409.84 273.226 1422.47 274.193 1437.05 274.193H1463.3L1480.15 250.322C1502.18 219.677 1538.15 182.903 1566.34 161.935L1588.7 145.161H1555.65C1501.21 145.161 1480.8 136.129 1480.8 111.613C1480.8 86.774 1497.97 80.645 1568.29 80.645C1600.69 80.645 1613.97 81.6127 1615.92 84.5159C1617.21 86.774 1617.86 128.709 1617.21 177.742C1616.57 252.903 1617.21 267.097 1621.1 270.645C1624.34 273.226 1634.39 274.193 1649.94 273.548L1673.59 272.58V156.451V40.3224L1584.49 39.6772C1520.98 39.3547 1491.17 40.3224 1480.15 43.2256Z" fill="white"/>
</svg>
